<svg width="2048" height="2048" viewBox="0 0 2048 2048" fill="none" xmlns="http://www.w3.org/2000/svg">
<rect x="704" y="384" width="64" height="64" fill="#004517"/>
<rect x="768" y="512" width="64" height="64" fill="#000000"/>
<rect x="768" y="384" width="64" height="64" fill="#005205"/>
<rect x="832" y="512" width="64" height="64" fill="#000000"/>
<rect x="832" y="384" width="64" height="64" fill="#185700"/>
<rect x="896" y="512" width="64" height="64" fill="#000000"/>
<rect x="896" y="384" width="64" height="64" fill="#215a00"/>
<rect x="960" y="512" width="64" height="64" fill="#000000"/>
<rect x="960" y="384" width="64" height="64" fill="#2a5c00"/>
<rect x="1024" y="512" width="64" height="64" fill="#000000"/>
<rect x="1024" y="384" width="64" height="64" fill="#2a5c00"/>
<rect x="1088" y="512" width="64" height="64" fill="#000000"/>
<rect x="1088" y="384" width="64" height="64" fill="#215a00"/>
<rect x="896" y="320" width="64" height="64" fill="#145700"/>
<rect x="960" y="320" width="64" height="64" fill="#185700"/>
<rect x="1024" y="320" width="64" height="64" fill="#185700"/>
<rect x="1088" y="320" width="64" height="64" fill="#145700"/>
<rect x="1152" y="512" width="64" height="64" fill="#000000"/>
<rect x="1152" y="384" width="64" height="64" fill="#185700"/>
<rect x="1216" y="512" width="64" height="64" fill="#000000"/>
<rect x="1216" y="384" width="64" height="64" fill="#005205"/>
<rect x="1280" y="512" width="64" height="64" fill="#000000"/>
<rect x="1280" y="384" width="64" height="64" fill="#004218"/>
<rect x="704" y="448" width="64" height="64" fill="#004517"/>
<rect x="768" y="448" width="64" height="64" fill="#005205"/>
<rect x="832" y="448" width="64" height="64" fill="#185700"/>
<rect x="896" y="448" width="64" height="64" fill="#215a00"/>
<rect x="960" y="448" width="64" height="64" fill="#2a5c00"/>
<rect x="1024" y="448" width="64" height="64" fill="#2a5c00"/>
<rect x="1088" y="448" width="64" height="64" fill="#215a00"/>
<rect x="1152" y="448" width="64" height="64" fill="#185700"/>
<rect x="1216" y="448" width="64" height="64" fill="#005205"/>
<rect x="1280" y="448" width="64" height="64" fill="#004218"/>
<rect x="768" y="320" width="64" height="64" fill="#004c11"/>
<rect x="832" y="320" width="64" height="64" fill="#095500"/>
<rect x="896" y="256" width="64" height="64" fill="#004d0b"/>
<rect x="960" y="256" width="64" height="64" fill="#005108"/>
<rect x="1152" y="320" width="64" height="64" fill="#095500"/>
<rect x="1216" y="320" width="64" height="64" fill="#004c11"/>
<rect x="1024" y="256" width="64" height="64" fill="#005108"/>
<rect x="1088" y="256" width="64" height="64" fill="#004914"/>
<rect x="704" y="512" width="64" height="64" fill="#000000"/>
<rect x="640" y="512" width="64" height="64" fill="#000000"/>
<rect x="1344" y="512" width="64" height="64" fill="#000000"/>
</svg>
