<svg width="2048" height="2048" viewBox="0 0 2048 2048" fill="none" xmlns="http://www.w3.org/2000/svg">
<rect x="704" y="384" width="64" height="64" fill="#790036"/>
<rect x="768" y="512" width="64" height="64" fill="#000000"/>
<rect x="768" y="384" width="64" height="64" fill="#8b004b"/>
<rect x="832" y="512" width="64" height="64" fill="#000000"/>
<rect x="832" y="384" width="64" height="64" fill="#940059"/>
<rect x="896" y="512" width="64" height="64" fill="#000000"/>
<rect x="896" y="384" width="64" height="64" fill="#960e5e"/>
<rect x="960" y="512" width="64" height="64" fill="#000000"/>
<rect x="960" y="384" width="64" height="64" fill="#951b64"/>
<rect x="1024" y="512" width="64" height="64" fill="#000000"/>
<rect x="1024" y="384" width="64" height="64" fill="#951b64"/>
<rect x="1088" y="512" width="64" height="64" fill="#000000"/>
<rect x="1088" y="384" width="64" height="64" fill="#960e5e"/>
<rect x="896" y="320" width="64" height="64" fill="#940057"/>
<rect x="960" y="320" width="64" height="64" fill="#940059"/>
<rect x="1024" y="320" width="64" height="64" fill="#940059"/>
<rect x="1088" y="320" width="64" height="64" fill="#940057"/>
<rect x="1152" y="512" width="64" height="64" fill="#000000"/>
<rect x="1152" y="384" width="64" height="64" fill="#940059"/>
<rect x="1216" y="512" width="64" height="64" fill="#000000"/>
<rect x="1216" y="384" width="64" height="64" fill="#8b004b"/>
<rect x="1280" y="512" width="64" height="64" fill="#000000"/>
<rect x="1280" y="384" width="64" height="64" fill="#740033"/>
<rect x="704" y="448" width="64" height="64" fill="#790036"/>
<rect x="768" y="448" width="64" height="64" fill="#8b004b"/>
<rect x="832" y="448" width="64" height="64" fill="#940059"/>
<rect x="896" y="448" width="64" height="64" fill="#960e5e"/>
<rect x="960" y="448" width="64" height="64" fill="#951b64"/>
<rect x="1024" y="448" width="64" height="64" fill="#951b64"/>
<rect x="1088" y="448" width="64" height="64" fill="#960e5e"/>
<rect x="1152" y="448" width="64" height="64" fill="#940059"/>
<rect x="1216" y="448" width="64" height="64" fill="#8b004b"/>
<rect x="1280" y="448" width="64" height="64" fill="#740033"/>
<rect x="768" y="320" width="64" height="64" fill="#820041"/>
<rect x="832" y="320" width="64" height="64" fill="#900052"/>
<rect x="896" y="256" width="64" height="64" fill="#830044"/>
<rect x="960" y="256" width="64" height="64" fill="#8a0049"/>
<rect x="1152" y="320" width="64" height="64" fill="#900052"/>
<rect x="1216" y="320" width="64" height="64" fill="#820041"/>
<rect x="1024" y="256" width="64" height="64" fill="#8a0049"/>
<rect x="1088" y="256" width="64" height="64" fill="#7f003d"/>
<rect x="704" y="512" width="64" height="64" fill="#000000"/>
<rect x="640" y="512" width="64" height="64" fill="#000000"/>
<rect x="1344" y="512" width="64" height="64" fill="#000000"/>
</svg>
