<svg width="2048" height="2048" viewBox="0 0 2048 2048" fill="none" xmlns="http://www.w3.org/2000/svg">
<rect x="768" y="256" width="64" height="64" fill="#65301E"/>
<rect x="832" y="256" width="64" height="64" fill="#65301E"/>
<rect x="896" y="256" width="64" height="64" fill="#65301E"/>
<rect x="1088" y="256" width="64" height="64" fill="#65301E"/>
<rect x="1152" y="256" width="64" height="64" fill="#65301E"/>
<rect x="1216" y="256" width="64" height="64" fill="#65301E"/>
<rect x="1280" y="256" width="64" height="64" fill="#65301E"/>
<rect x="960" y="256" width="64" height="64" fill="#4E2213"/>
<rect x="1344" y="512" width="64" height="64" fill="black"/>
<rect x="576" y="320" width="64" height="64" fill="black"/>
<rect x="576" y="384" width="64" height="64" fill="black"/>
<rect x="576" y="448" width="64" height="64" fill="black"/>
<rect x="576" y="512" width="64" height="64" fill="black"/>
<rect x="640" y="257" width="64" height="64" fill="black"/>
<rect x="1408" y="320" width="64" height="64" fill="black"/>
<rect x="1408" y="384" width="64" height="64" fill="black"/>
<rect x="1408" y="448" width="64" height="64" fill="black"/>
<rect x="1408" y="512" width="64" height="64" fill="black"/>
<rect x="1344" y="256" width="64" height="64" fill="black"/>
<rect x="704" y="192" width="640" height="64" fill="black"/>
<rect x="640" y="384" width="64" height="64" fill="#4E2213"/>
<rect x="640" y="448" width="64" height="64" fill="#4E2213"/>
<rect x="640" y="512" width="64" height="64" fill="#4E2213"/>
<rect x="640" y="576" width="64" height="128" fill="#4E2213"/>
<rect x="640" y="320" width="64" height="64" fill="#4E2213"/>
<rect x="832" y="320" width="64" height="64" fill="#995A45"/>
<rect x="896" y="320" width="64" height="64" fill="#995A45"/>
<rect x="1088" y="320" width="64" height="64" fill="#995A45"/>
<rect x="1152" y="320" width="64" height="64" fill="#995A45"/>
<rect x="1152" y="384" width="64" height="64" fill="black"/>
<rect x="1216" y="384" width="64" height="64" fill="#995A45"/>
<rect x="1216" y="448" width="64" height="64" fill="black"/>
<rect x="768" y="448" width="64" height="64" fill="black"/>
<rect x="768" y="384" width="64" height="64" fill="#995A45"/>
<rect x="832" y="384" width="64" height="64" fill="black"/>
<rect x="704" y="256" width="64" height="64" fill="#65301E"/>
<rect x="1024" y="256" width="64" height="64" fill="#4E2213"/>
<rect x="960" y="320" width="64" height="64" fill="#864933"/>
<rect x="768" y="320" width="64" height="64" fill="#864933"/>
<rect x="1024" y="320" width="64" height="64" fill="#864933"/>
<rect x="1216" y="320" width="64" height="64" fill="#864933"/>
<rect x="960" y="384" width="64" height="64" fill="black"/>
<rect x="1024" y="384" width="64" height="64" fill="black"/>
<rect x="704" y="320" width="64" height="64" fill="#65301E"/>
<rect x="704" y="384" width="64" height="64" fill="#65301E"/>
<rect x="1280" y="320" width="64" height="64" fill="#65301E"/>
<rect x="1280" y="384" width="64" height="64" fill="#65301E"/>
<rect x="1344" y="512" width="192" height="64" transform="rotate(-90 1344 512)" fill="#4E2213"/>
<rect x="704" y="576" width="64" height="64" fill="black"/>
<rect x="704" y="640" width="64" height="64" fill="black"/>
<rect x="640" y="704" width="64" height="64" fill="black"/>
<rect x="704" y="512" width="64" height="64" fill="black"/>
<rect x="1280" y="512" width="64" height="64" fill="black"/>
<rect x="1280" y="448" width="64" height="64" fill="#864933"/>
<rect x="704" y="448" width="64" height="64" fill="#864933"/>
<rect x="896" y="384" width="64" height="64" fill="black"/>
<rect x="1088" y="384" width="64" height="64" fill="black"/>
</svg>
