<svg width="2048" height="2048" viewBox="0 0 2048 2048" fill="none" xmlns="http://www.w3.org/2000/svg">
<rect width="64" height="64" transform="matrix(-1 0 0 1 1280 512)" fill="black"/>
<rect width="64" height="64" transform="matrix(-1 0 0 1 1408 576)" fill="black"/>
<rect width="64" height="64" transform="matrix(-1 0 0 1 1344 576)" fill="black"/>
<rect width="64" height="64" transform="matrix(-1 0 0 1 1152 256)" fill="#A7A7A7"/>
<rect width="64" height="64" transform="matrix(-1 0 0 1 1088 256)" fill="black"/>
<rect width="64" height="64" transform="matrix(-1 0 0 1 1344 448)" fill="#9F9F9F"/>
<rect width="64" height="64" transform="matrix(-1 0 0 1 1344 384)" fill="#9A9A9A"/>
<rect width="64" height="64" transform="matrix(-1 0 0 1 1280 448)" fill="#B5B5B5"/>
<rect width="64" height="64" transform="matrix(-1 0 0 1 1280 384)" fill="#B5B5B5"/>
<rect width="64" height="64" transform="matrix(-1 0 0 1 1216 448)" fill="black"/>
<rect width="64" height="64" transform="matrix(-1 0 0 1 1216 384)" fill="#C6C6C6"/>
<rect width="64" height="64" transform="matrix(-1 0 0 1 1152 384)" fill="black"/>
<rect width="64" height="64" transform="matrix(-1 0 0 1 1152 320)" fill="#BFBFBF"/>
<rect width="64" height="64" transform="matrix(-1 0 0 1 1088 320)" fill="black"/>
<rect width="64" height="64" transform="matrix(-1 0 0 1 1280 320)" fill="#ABABAB"/>
<rect width="64" height="64" transform="matrix(-1 0 0 1 1216 320)" fill="#BABABA"/>
<rect width="64" height="64" transform="matrix(-1 0 0 1 1344 512)" fill="#9F9F9F"/>
<rect width="64" height="64" transform="matrix(-1 0 0 1 1408 512)" fill="#5E5E5E"/>
</svg>
