<svg width="2048" height="2048" viewBox="0 0 2048 2048" fill="none" xmlns="http://www.w3.org/2000/svg">
<rect x="1408" y="832" width="64" height="64" fill="red"/>
<rect x="1472" y="832" width="64" height="64" fill="black"/>
<rect x="1344" y="832" width="64" height="64" fill="black"/>
<rect x="1344" y="896" width="64" height="64" fill="black"/>
<rect x="1472" y="896" width="64" height="64" fill="black"/>
<rect x="1408" y="896" width="64" height="64" fill="black"/>
<rect x="1344" y="768" width="64" height="64" fill="black"/>
<rect x="1472" y="768" width="64" height="64" fill="black"/>
<rect x="1408" y="768" width="64" height="64" fill="black"/>
<rect x="1344" y="960" width="256" height="192" transform="rotate(180 1344 960)" fill="black"/>
<rect x="1344" y="896" width="64" height="64" transform="rotate(180 1344 896)" fill="red"/>
<rect x="1216" y="896" width="64" height="64" transform="rotate(180 1216 896)" fill="red"/>
<rect x="832" y="832" width="64" height="64" fill="red"/>
<rect x="896" y="832" width="64" height="64" fill="black"/>
<rect x="960" y="832" width="64" height="64" fill="black"/>
<rect x="1024" y="832" width="64" height="64" fill="black"/>
<rect x="960" y="768" width="64" height="64" fill="black"/>
<rect x="1024" y="768" width="64" height="64" fill="black"/>
<rect x="960" y="896" width="64" height="64" fill="black"/>
<rect x="1024" y="896" width="64" height="64" fill="black"/>
<rect x="768" y="832" width="64" height="64" fill="black"/>
<rect x="768" y="896" width="64" height="64" fill="black"/>
<rect x="896" y="896" width="64" height="64" fill="black"/>
<rect x="832" y="896" width="64" height="64" fill="black"/>
<rect x="768" y="768" width="64" height="64" fill="black"/>
<rect x="896" y="768" width="64" height="64" fill="black"/>
<rect x="832" y="768" width="64" height="64" fill="black"/>
<rect x="768" y="960" width="256" height="192" transform="rotate(180 768 960)" fill="black"/>
<rect x="768" y="896" width="64" height="64" transform="rotate(180 768 896)" fill="red"/>
<rect x="640" y="896" width="64" height="64" transform="rotate(180 640 896)" fill="red"/>
</svg>
